#!OML:ASF E:\Style4\Style4.ASF
:FULLY-SPECIFIED
:DEGREES
2755
root -0.301036 17.6696 -1.77592 -4.81008 -1.15193 0.638921
lowerback 5.14156 2.30726 -2.60079
upperback 4.7636 2.99879 -0.857478
thorax 1.94012 1.44458 0.47084
lowerneck 2.85961 -4.58611 -6.49174
upperneck 9.29811 -6.56369 5.46973
head 2.96117 -3.34277 2.81945
rclavicle 9.74045e-015 7.95139e-015
rhumerus -364.281 39.7598 -425.364
rradius 99.4643
rwrist -29.7736
rhand -7.55331 17.2841
rfingers 7.12502
rthumb 18.3386 -11.8715
lclavicle 9.74045e-015 7.95139e-015
lhumerus -43.5663 -31.6429 92.8536
lradius 101.18
lwrist 25.7708
lhand -0.974549 23.7023
lfingers 7.12502
lthumb 24.6566 52.1339
rfemur -6.88323 -0.288296 18.1292
rtibia 31.845
rfoot -19.7173 -10.1897
rtoes -9.95563
lfemur -4.12523 2.17359 -18.9794
ltibia 30.7011
lfoot -21.999 8.68587
ltoes -10.046
2756
root -0.305289 17.6699 -1.77443 -4.78321 -1.29027 0.58945
lowerback 5.07921 2.37981 -2.72494
upperback 4.81326 3.09506 -0.877467
thorax 2.0189 1.48831 0.51981
lowerneck 2.87502 -4.62705 -6.53266
upperneck 9.2878 -6.62162 5.50333
head 2.96255 -3.37231 2.83738
rclavicle -2.50966e-014 -5.56597e-015
rhumerus -363.93 40.8918 -425.473
rradius 99.7346
rwrist -31.1826
rhand -7.49178 16.4801
rfingers 7.12502
rthumb 18.3978 -12.6699
lclavicle -2.50966e-014 -5.56597e-015
lhumerus -44.7016 -31.3504 93.5418
lradius 101.412
lwrist 26.28
lhand -1.47064 23.7531
lfingers 7.12502
lthumb 24.181 52.2488
rfemur -6.92268 -0.222546 18.2137
rtibia 31.8412
rfoot -19.7037 -10.1353
rtoes -9.75778
lfemur -4.1506 2.19254 -18.9082
ltibia 30.746
lfoot -22.1345 8.71661
ltoes -10.0252
2757
root -0.309569 17.6688 -1.77282 -4.77941 -1.44117 0.450068
lowerback 5.03029 2.48875 -2.64519
upperback 4.8757 3.24691 -0.94368
thorax 2.11471 1.5661 0.406104
lowerneck 2.88777 -4.70445 -6.50187
upperneck 9.23212 -6.73194 5.60731
head 2.95269 -3.42367 2.8649
rclavicle -1.78906e-014 1.11319e-014
rhumerus -363.54 41.8376 -425.586
rradius 99.9042
rwrist -32.3606
rhand -7.0305 16.2847
rfingers 7.12502
rthumb 18.8415 -12.8228
lclavicle -1.78906e-014 1.11319e-014
lhumerus -45.6527 -31.1316 93.993
lradius 101.586
lwrist 26.3391
lhand -1.34141 23.6674
lfingers 7.12502
lthumb 24.3049 52.1466
rfemur -6.95175 -0.207017 18.3876
rtibia 31.8375
rfoot -19.6535 -10.087
rtoes -9.74788
lfemur -4.14259 2.22597 -18.7347
ltibia 30.7909
lfoot -22.1611 8.83215
ltoes -10.032
2758
root -0.314359 17.6675 -1.77153 -4.79536 -1.59286 0.375981
lowerback 5.03958 2.61399 -2.62354
upperback 4.8998 3.41571 -1.03012
thorax 2.13692 1.65224 0.299835
lowerneck 2.94178 -4.79088 -6.45198
upperneck 9.19035 -6.85479 5.68508
head 2.93883 -3.4819 2.8804
rclavicle 8.99501e-015 -5.56597e-015
rhumerus -363.154 42.7451 -425.701
rradius 99.9237
rwrist -33.2433
rhand -6.68625 16.8111
rfingers 7.12502
rthumb 19.1726 -12.2639
lclavicle 8.99501e-015 -5.56597e-015
lhumerus -46.6078 -30.9191 94.3569
lradius 101.817
lwrist 25.9593
lhand -1.02822 23.4097
lfingers 7.12502
lthumb 24.6052 51.8483
rfemur -6.96918 -0.162939 18.4942
rtibia 31.848
rfoot -19.6204 -10.0111
rtoes -9.69867
lfemur -4.11854 2.25953 -18.6329
ltibia 30.8409
lfoot -22.131 8.98816
ltoes -10.2676
2759
root -0.318978 17.6656 -1.77052 -4.78899 -1.72549 0.335085
lowerback 5.01772 2.74315 -2.67186
upperback 4.91395 3.58808 -1.08281
thorax 2.16056 1.73762 0.268183
lowerneck 2.97537 -4.90885 -6.54358
upperneck 9.2125 -7.02133 5.75773
head 2.96068 -3.56646 2.91856
rclavicle 4.67144e-015 7.95139e-015
rhumerus -362.58 43.6122 -425.667
rradius 99.9888
rwrist -34.4061
rhand -6.79435 16.7
rfingers 7.12502
rthumb 19.0686 -12.3852
lclavicle 4.67144e-015 7.95139e-015
lhumerus -47.4842 -30.7543 94.6979
lradius 102.13
lwrist 25.7019
lhand -0.823325 23.3555
lfingers 7.12502
lthumb 24.8015 51.7672
rfemur -7.01514 -0.17943 18.5528
rtibia 31.8858
rfoot -19.6471 -9.8587
rtoes -9.56827
lfemur -4.11131 2.28206 -18.5706
ltibia 30.8742
lfoot -22.1741 9.04102
ltoes -10.1828
2760
root -0.323292 17.6643 -1.76997 -4.77871 -1.87053 0.363902
lowerback 4.91973 2.92023 -2.7696
upperback 4.9655 3.82743 -1.15614
thorax 2.26245 1.85425 0.245906
lowerneck 2.97886 -5.04848 -6.56954
upperneck 9.21287 -7.20962 5.77469
head 2.97626 -3.66028 2.92391
rclavicle 1.82882e-014 -7.15625e-015
rhumerus -361.887 44.253 -425.479
rradius 100.182
rwrist -35.9709
rhand -6.94505 16.1222
rfingers 7.12502
rthumb 18.9237 -12.9772
lclavicle 1.82882e-014 -7.15625e-015
lhumerus -48.1658 -30.8571 94.9948
lradius 102.511
lwrist 25.8627
lhand -0.877595 23.2741
lfingers 7.12502
lthumb 24.7495 51.6929
rfemur -7.08695 -0.204654 18.5328
rtibia 31.9528
rfoot -19.6521 -9.76687
rtoes -9.86351
lfemur -4.10831 2.3328 -18.5851
ltibia 30.8906
lfoot -22.2847 9.07358
ltoes -10.0856
2761
root -0.327473 17.6634 -1.76917 -4.72403 -2.01082 0.401929
lowerback 4.80841 3.10866 -2.78904
upperback 4.97882 4.08505 -1.2909
thorax 2.34128 1.98393 0.117137
lowerneck 2.95064 -5.16356 -6.59672
upperneck 9.25189 -7.37217 5.88492
head 3.01424 -3.73878 2.96151
rclavicle 7.05686e-015 1.27222e-014
rhumerus -361.164 44.798 -425.346
rradius 100.375
rwrist -37.4143
rhand -6.86183 15.7751
rfingers 7.12502
rthumb 19.0037 -13.3166
lclavicle 7.05686e-015 1.27222e-014
lhumerus -48.835 -31.1661 95.2171
lradius 102.998
lwrist 26.2305
lhand -1.30643 23.1097
lfingers 7.12502
lthumb 24.3385 51.5843
rfemur -7.21975 -0.197444 18.5009
rtibia 32.0362
rfoot -19.6816 -9.68886
rtoes -10.1151
lfemur -4.15645 2.40306 -18.6114
ltibia 30.9134
lfoot -22.3466 9.13565
ltoes -10.2265
2762
root -0.332363 17.6614 -1.76823 -4.70308 -2.11397 0.439574
lowerback 4.88667 3.24817 -2.76747
upperback 4.90945 4.26854 -1.4635
thorax 2.23696 2.08105 -0.0844173
lowerneck 2.84005 -5.25625 -6.55303
upperneck 9.44277 -7.49772 5.88739
head 3.10765 -3.79776 2.94704
rclavicle 1.09332e-015 3.97569e-015
rhumerus -360.442 45.4384 -425.343
rradius 100.517
rwrist -38.6651
rhand -6.43977 15.6463
rfingers 7.12502
rthumb 19.4096 -13.405
lclavicle 1.09332e-015 3.97569e-015
lhumerus -49.6029 -31.4017 95.3435
lradius 103.628
lwrist 26.8527
lhand -1.50359 23.4588
lfingers 7.12502
lthumb 24.1494 51.9587
rfemur -7.31132 -0.198548 18.4668
rtibia 32.1361
rfoot -19.7697 -9.57344
rtoes -10.0949
lfemur -4.17757 2.47765 -18.6339
ltibia 30.94
lfoot -22.3002 9.18969
ltoes -10.3877
